# xmcd
#
# Track frame offsets:
#	150
#	18570
#	39322
#	56872
#	74684
#	90642
#	106041
#	124205
#	138858
#	159186
#	174223
#	192073
#	207525
#	223715
#	237121
#	252252
#	265375
#
# Disc length: 3753 seconds
#
# Revision: 1
# Processed by: cddbd v1.5.2PL0 Copyright (c) Steve Scherf et al.
# Submitted via: audiograbber 1.83.01
#
DISCID=ef0ea711
DTITLE=Gérard Caillieux - Vol 2 - Rock at ze Lapin
DYEAR=1900
DGENRE=
TTITLE0=Rock at ze Lapin
TTITLE1=A la bourre
TTITLE2=Mobylette
TTITLE3=Baba cool
TTITLE4=Je les balaie !
TTITLE5=Représentant en castagnettes
TTITLE6=Nos années bidon
TTITLE7=Trop d'la bombe !
TTITLE8=Rez-de-chaussures
TTITLE9=Quitte-moi pendant la coupe du monde
TTITLE10=Come on my tatami
TTITLE11=Pas d'amour, pas d'boulot
TTITLE12=Steack-rock and pommes frites-blues
TTITLE13=Y'a pas d'Io !
TTITLE14=Késaco ?
TTITLE15=La 2ème vois de "If I fell"
TTITLE16=Mon chewing-gum
EXTD=
EXTT0=
EXTT1=
EXTT2=
EXTT3=
EXTT4=
EXTT5=
EXTT6=
EXTT7=
EXTT8=
EXTT9=
EXTT10=
EXTT11=
EXTT12=
EXTT13=
EXTT14=
EXTT15=
EXTT16=
PLAYORDER=
